<svg xmlns="http://www.w3.org/2000/svg" xmlns:xlink="http://www.w3.org/1999/xlink" width="324" zoomAndPan="magnify" viewBox="0 0 242.87999 80.999996" height="108" preserveAspectRatio="xMidYMid meet" version="1.0"><defs><g/><clipPath id="131c7d5a01"><path d="M 10 9 L 74.8125 9 L 74.8125 71.835938 L 10 71.835938 Z M 10 9 " clip-rule="nonzero"/></clipPath><clipPath id="81c8dc3ed9"><path d="M 8.097656 8.117188 L 73 8.117188 L 73 71 L 8.097656 71 Z M 8.097656 8.117188 " clip-rule="nonzero"/></clipPath></defs><g clip-path="url(#131c7d5a01)"><path fill="#ced3db" d="M 39.242188 49.636719 L 43.09375 45.765625 C 43.929688 44.925781 45.125 44.683594 46.222656 45.132812 C 47.324219 45.578125 48.003906 46.589844 48.011719 47.773438 L 48.015625 48.933594 L 51.863281 48.933594 L 49.316406 44.535156 C 48.90625 43.832031 48.816406 43.039062 49.035156 42.304688 L 44.003906 40.984375 C 42.855469 40.683594 42.050781 39.769531 41.890625 38.597656 C 41.730469 37.421875 42.265625 36.328125 43.289062 35.734375 L 43.984375 35.328125 L 42.175781 32.199219 L 40.472656 35.140625 C 40.035156 35.894531 39.332031 36.382812 38.519531 36.53125 L 39.984375 41.898438 C 40.296875 43.042969 39.910156 44.195312 38.972656 44.921875 C 38.03125 45.644531 36.816406 45.730469 35.785156 45.140625 L 34.957031 44.671875 L 32.488281 48.9375 L 37.34375 48.9375 C 38.070312 48.9375 38.734375 49.191406 39.242188 49.640625 Z M 40.382812 67.984375 C 39.871094 68.449219 39.195312 68.710938 38.457031 68.710938 L 25.636719 68.710938 C 20.035156 68.710938 15.15625 65.902344 12.355469 61.066406 C 9.554688 56.226562 9.554688 50.609375 12.355469 45.769531 L 18.445312 35.25 L 17.550781 34.742188 C 16.519531 34.152344 15.976562 33.066406 16.128906 31.890625 C 16.277344 30.714844 17.078125 29.796875 18.222656 29.484375 L 23.410156 28.078125 C 23.273438 27.414062 23.386719 26.714844 23.75 26.089844 L 28.894531 17.199219 C 31.695312 12.359375 36.574219 9.550781 42.175781 9.550781 C 47.777344 9.550781 52.652344 12.359375 55.453125 17.199219 L 60.417969 25.773438 L 61.433594 25.183594 C 62.457031 24.585938 63.675781 24.660156 64.621094 25.378906 C 65.566406 26.09375 65.964844 27.246094 65.660156 28.390625 L 64.121094 34.222656 C 64.949219 34.359375 65.667969 34.851562 66.113281 35.617188 L 66.167969 35.710938 C 66.175781 35.722656 66.179688 35.734375 66.1875 35.746094 L 71.992188 45.769531 C 74.789062 50.609375 74.789062 56.226562 71.992188 61.066406 C 69.191406 65.902344 64.3125 68.710938 58.710938 68.710938 L 48.09375 68.710938 L 48.09375 68.71875 C 48.101562 69.90625 47.425781 70.917969 46.332031 71.375 C 45.238281 71.835938 44.039062 71.601562 43.195312 70.769531 Z M 40.382812 67.984375 " fill-opacity="1" fill-rule="evenodd"/></g><g clip-path="url(#81c8dc3ed9)"><path fill="#ffffff" d="M 37.804688 48.203125 L 41.65625 44.332031 C 42.492188 43.492188 43.6875 43.25 44.785156 43.695312 C 45.882812 44.144531 46.566406 45.15625 46.570312 46.339844 L 46.578125 47.5 L 50.425781 47.5 L 47.878906 43.101562 C 47.46875 42.394531 47.378906 41.601562 47.597656 40.871094 L 42.566406 39.546875 C 41.417969 39.246094 40.609375 38.335938 40.449219 37.160156 C 40.289062 35.988281 40.824219 34.894531 41.851562 34.296875 L 42.546875 33.894531 L 40.738281 30.761719 L 39.035156 33.707031 C 38.597656 34.457031 37.894531 34.949219 37.082031 35.09375 L 38.546875 40.464844 C 38.859375 41.605469 38.472656 42.761719 37.535156 43.484375 C 36.59375 44.210938 35.378906 44.296875 34.347656 43.707031 L 33.519531 43.234375 L 31.050781 47.5 L 35.90625 47.5 C 36.632812 47.5 37.296875 47.753906 37.804688 48.203125 Z M 38.945312 66.550781 C 38.433594 67.015625 37.757812 67.277344 37.015625 67.277344 L 24.199219 67.277344 C 18.597656 67.277344 13.71875 64.46875 10.917969 59.632812 C 8.117188 54.792969 8.117188 49.175781 10.917969 44.335938 L 17.007812 33.816406 L 16.113281 33.308594 C 15.085938 32.71875 14.539062 31.628906 14.691406 30.457031 C 14.839844 29.28125 15.640625 28.363281 16.785156 28.050781 L 21.972656 26.640625 C 21.839844 25.980469 21.949219 25.28125 22.3125 24.652344 L 27.457031 15.761719 C 30.257812 10.925781 35.136719 8.117188 40.738281 8.117188 C 46.339844 8.117188 51.214844 10.925781 54.015625 15.761719 L 58.980469 24.339844 L 59.996094 23.75 C 61.019531 23.152344 62.238281 23.226562 63.183594 23.941406 C 64.128906 24.660156 64.527344 25.8125 64.222656 26.957031 L 62.683594 32.785156 C 63.511719 32.921875 64.234375 33.417969 64.675781 34.183594 L 64.730469 34.277344 C 64.738281 34.289062 64.746094 34.300781 64.75 34.3125 L 70.554688 44.335938 C 73.355469 49.175781 73.355469 54.792969 70.554688 59.628906 C 67.753906 64.46875 62.875 67.277344 57.273438 67.277344 L 46.660156 67.277344 L 46.660156 67.285156 C 46.664062 68.46875 45.988281 69.484375 44.894531 69.941406 C 43.800781 70.398438 42.601562 70.167969 41.757812 69.332031 Z M 38.945312 66.550781 " fill-opacity="1" fill-rule="evenodd"/></g><path fill="#26a22e" d="M 17.542969 30.816406 L 31.871094 26.925781 L 35.773438 41.214844 L 32.460938 39.328125 L 26.070312 50.367188 L 35.902344 50.367188 L 29.417969 56.890625 L 37.015625 64.410156 L 24.199219 64.410156 C 19.621094 64.410156 15.695312 62.148438 13.410156 58.199219 C 11.121094 54.246094 11.121094 49.722656 13.410156 45.769531 L 20.941406 32.757812 Z M 17.542969 30.816406 " fill-opacity="1" fill-rule="evenodd"/><path fill="#26a22e" d="M 43.78125 67.296875 L 33.238281 56.867188 L 43.695312 46.351562 L 43.710938 50.367188 L 55.402344 50.367188 L 50.367188 41.667969 L 59.925781 44.179688 L 62.1875 35.621094 L 68.0625 45.773438 C 70.351562 49.722656 70.351562 54.246094 68.0625 58.199219 C 65.777344 62.148438 61.851562 64.410156 57.273438 64.410156 L 43.769531 64.410156 L 43.78125 67.300781 Z M 43.78125 67.296875 " fill-opacity="1" fill-rule="evenodd"/><path fill="#26a22e" d="M 51.523438 17.199219 L 57.933594 28.269531 L 61.441406 26.226562 L 57.660156 40.550781 L 43.300781 36.777344 L 46.46875 34.933594 L 40.734375 25.027344 L 36.542969 32.269531 L 34.160156 23.546875 L 24.800781 26.089844 L 29.945312 17.199219 C 32.234375 13.246094 36.160156 10.984375 40.734375 10.984375 C 45.308594 10.984375 49.238281 13.246094 51.523438 17.199219 Z M 51.523438 17.199219 " fill-opacity="1" fill-rule="evenodd"/><path fill="#198420" d="M 34.160156 23.546875 L 36.542969 32.269531 L 40.734375 25.027344 C 33.652344 12.226562 25.039062 25.679688 25.039062 25.679688 L 24.800781 26.089844 Z M 34.160156 23.546875 " fill-opacity="1" fill-rule="evenodd"/><path fill="#198420" d="M 59.925781 44.179688 L 50.367188 41.664062 L 55.402344 50.367188 C 65.140625 51.144531 66.453125 42.988281 62.1875 35.617188 Z M 59.925781 44.179688 " fill-opacity="1" fill-rule="evenodd"/><path fill="#198420" d="M 29.417969 56.890625 L 35.902344 50.367188 L 26.070312 50.367188 C 21.222656 58.832031 27.390625 64.410156 37.019531 64.410156 Z M 29.417969 56.890625 " fill-opacity="1" fill-rule="evenodd"/><g fill="#26a22e" fill-opacity="0.4"><g transform="translate(77.528659, 37.603986)"><g><path d="M 9.867188 -15.382812 L 15.355469 -15.382812 L 15.355469 -19.226562 L 0.140625 -19.226562 L 0.140625 -15.382812 L 5.625 -15.382812 L 5.625 0 L 9.867188 0 Z M 9.867188 -15.382812 "/></g></g></g><g fill="#26a22e" fill-opacity="0.4"><g transform="translate(94.522107, 37.603986)"><g><path d="M 5.9375 -6.871094 L 5.964844 -6.871094 L 10.546875 0 L 15.917969 0 L 10.40625 -7.070312 C 12.835938 -7.664062 14.789062 -9.8125 14.789062 -13.0625 C 14.789062 -16.710938 12.015625 -19.226562 8.90625 -19.226562 L 1.695312 -19.226562 L 1.695312 0 L 5.9375 0 Z M 8.199219 -15.890625 C 9.445312 -15.890625 10.746094 -14.816406 10.746094 -13.0625 C 10.746094 -11.226562 9.445312 -10.207031 8.199219 -10.207031 L 5.9375 -10.207031 L 5.9375 -15.890625 Z M 8.199219 -15.890625 "/></g></g></g><g fill="#26a22e" fill-opacity="0.4"><g transform="translate(111.600382, 37.603986)"><g><path d="M 12.160156 -7.351562 L 7.296875 -7.351562 L 9.726562 -14.195312 Z M 19.339844 0 L 11.535156 -19.226562 L 7.945312 -19.226562 L 0.140625 0 L 4.695312 0 L 6.078125 -3.875 L 13.402344 -3.875 L 14.789062 0 Z M 19.339844 0 "/></g></g></g><g fill="#26a22e" fill-opacity="0.4"><g transform="translate(132.580616, 37.603986)"><g><path d="M 9.160156 -2.996094 C 7.070312 -2.996094 5.257812 -4.042969 5.144531 -6.332031 L 0.847656 -6.332031 C 0.875 -1.640625 4.75 0.453125 8.992188 0.453125 C 12.921875 0.453125 16.964844 -1.214844 16.964844 -5.738281 C 16.964844 -13.0625 5.851562 -10.601562 5.851562 -14.023438 C 5.851562 -15.46875 7.519531 -16.03125 8.710938 -16.03125 C 10.828125 -16.03125 11.988281 -15.382812 12.214844 -13.375 L 16.316406 -13.375 C 16.175781 -17.757812 12.609375 -19.511719 8.652344 -19.511719 C 5.144531 -19.511719 1.46875 -17.644531 1.46875 -13.6875 C 1.46875 -6.589844 12.582031 -8.992188 12.582031 -5.257812 C 12.582031 -3.535156 10.492188 -2.996094 9.160156 -2.996094 Z M 9.160156 -2.996094 "/></g></g></g><g fill="#26a22e" fill-opacity="0.4"><g transform="translate(151.892626, 37.603986)"><g><path d="M 12.273438 -19.226562 L 12.273438 -11.566406 L 5.9375 -11.566406 L 5.9375 -19.226562 L 1.695312 -19.226562 L 1.695312 0 L 5.9375 0 L 5.9375 -7.71875 L 12.273438 -7.71875 L 12.273438 0 L 16.796875 0 L 16.796875 -19.226562 Z M 12.273438 -19.226562 "/></g></g></g><g fill="#26a22e" fill-opacity="0.4"><g transform="translate(171.883232, 37.603986)"><g><path d="M 25.675781 0 L 21.941406 -19.226562 L 16.910156 -19.226562 L 12.921875 -5.738281 L 8.90625 -19.226562 L 3.875 -19.226562 L 0.140625 0 L 4.808594 0 L 7.070312 -13.261719 L 10.828125 0 L 14.984375 0 L 18.746094 -13.261719 L 21.007812 0 Z M 25.675781 0 "/></g></g></g><g fill="#26a22e" fill-opacity="0.4"><g transform="translate(199.197087, 37.603986)"><g><path d="M 12.160156 -7.351562 L 7.296875 -7.351562 L 9.726562 -14.195312 Z M 19.339844 0 L 11.535156 -19.226562 L 7.945312 -19.226562 L 0.140625 0 L 4.695312 0 L 6.078125 -3.875 L 13.402344 -3.875 L 14.789062 0 Z M 19.339844 0 "/></g></g></g><g fill="#26a22e" fill-opacity="0.4"><g transform="translate(220.177324, 37.603986)"><g><path d="M 5.9375 -6.871094 L 8.90625 -6.871094 C 12.015625 -6.871094 14.789062 -9.160156 14.789062 -13.0625 C 14.789062 -16.710938 12.015625 -19.226562 8.90625 -19.226562 L 1.695312 -19.226562 L 1.695312 0 L 5.9375 0 Z M 8.199219 -15.890625 C 9.445312 -15.890625 10.746094 -14.816406 10.746094 -13.0625 C 10.746094 -11.226562 9.445312 -10.207031 8.199219 -10.207031 L 5.9375 -10.207031 L 5.9375 -15.890625 Z M 8.199219 -15.890625 "/></g></g></g><g fill="#ffffff" fill-opacity="1"><g transform="translate(75.979056, 36.05438)"><g><path d="M 9.867188 -15.382812 L 15.355469 -15.382812 L 15.355469 -19.226562 L 0.140625 -19.226562 L 0.140625 -15.382812 L 5.625 -15.382812 L 5.625 0 L 9.867188 0 Z M 9.867188 -15.382812 "/></g></g></g><g fill="#ffffff" fill-opacity="1"><g transform="translate(92.972504, 36.05438)"><g><path d="M 5.9375 -6.871094 L 5.964844 -6.871094 L 10.546875 0 L 15.917969 0 L 10.40625 -7.070312 C 12.835938 -7.664062 14.789062 -9.8125 14.789062 -13.0625 C 14.789062 -16.710938 12.015625 -19.226562 8.90625 -19.226562 L 1.695312 -19.226562 L 1.695312 0 L 5.9375 0 Z M 8.199219 -15.890625 C 9.445312 -15.890625 10.746094 -14.816406 10.746094 -13.0625 C 10.746094 -11.226562 9.445312 -10.207031 8.199219 -10.207031 L 5.9375 -10.207031 L 5.9375 -15.890625 Z M 8.199219 -15.890625 "/></g></g></g><g fill="#ffffff" fill-opacity="1"><g transform="translate(110.050779, 36.05438)"><g><path d="M 12.160156 -7.351562 L 7.296875 -7.351562 L 9.726562 -14.195312 Z M 19.339844 0 L 11.535156 -19.226562 L 7.945312 -19.226562 L 0.140625 0 L 4.695312 0 L 6.078125 -3.875 L 13.402344 -3.875 L 14.789062 0 Z M 19.339844 0 "/></g></g></g><g fill="#ffffff" fill-opacity="1"><g transform="translate(131.031013, 36.05438)"><g><path d="M 9.160156 -2.996094 C 7.070312 -2.996094 5.257812 -4.042969 5.144531 -6.332031 L 0.847656 -6.332031 C 0.875 -1.640625 4.75 0.453125 8.992188 0.453125 C 12.921875 0.453125 16.964844 -1.214844 16.964844 -5.738281 C 16.964844 -13.0625 5.851562 -10.601562 5.851562 -14.023438 C 5.851562 -15.46875 7.519531 -16.03125 8.710938 -16.03125 C 10.828125 -16.03125 11.988281 -15.382812 12.214844 -13.375 L 16.316406 -13.375 C 16.175781 -17.757812 12.609375 -19.511719 8.652344 -19.511719 C 5.144531 -19.511719 1.46875 -17.644531 1.46875 -13.6875 C 1.46875 -6.589844 12.582031 -8.992188 12.582031 -5.257812 C 12.582031 -3.535156 10.492188 -2.996094 9.160156 -2.996094 Z M 9.160156 -2.996094 "/></g></g></g><g fill="#ffffff" fill-opacity="1"><g transform="translate(150.343023, 36.05438)"><g><path d="M 12.273438 -19.226562 L 12.273438 -11.566406 L 5.9375 -11.566406 L 5.9375 -19.226562 L 1.695312 -19.226562 L 1.695312 0 L 5.9375 0 L 5.9375 -7.71875 L 12.273438 -7.71875 L 12.273438 0 L 16.796875 0 L 16.796875 -19.226562 Z M 12.273438 -19.226562 "/></g></g></g><g fill="#ffffff" fill-opacity="1"><g transform="translate(170.333629, 36.05438)"><g><path d="M 25.675781 0 L 21.941406 -19.226562 L 16.910156 -19.226562 L 12.921875 -5.738281 L 8.90625 -19.226562 L 3.875 -19.226562 L 0.140625 0 L 4.808594 0 L 7.070312 -13.261719 L 10.828125 0 L 14.984375 0 L 18.746094 -13.261719 L 21.007812 0 Z M 25.675781 0 "/></g></g></g><g fill="#ffffff" fill-opacity="1"><g transform="translate(197.647484, 36.05438)"><g><path d="M 12.160156 -7.351562 L 7.296875 -7.351562 L 9.726562 -14.195312 Z M 19.339844 0 L 11.535156 -19.226562 L 7.945312 -19.226562 L 0.140625 0 L 4.695312 0 L 6.078125 -3.875 L 13.402344 -3.875 L 14.789062 0 Z M 19.339844 0 "/></g></g></g><g fill="#ffffff" fill-opacity="1"><g transform="translate(218.627721, 36.05438)"><g><path d="M 5.9375 -6.871094 L 8.90625 -6.871094 C 12.015625 -6.871094 14.789062 -9.160156 14.789062 -13.0625 C 14.789062 -16.710938 12.015625 -19.226562 8.90625 -19.226562 L 1.695312 -19.226562 L 1.695312 0 L 5.9375 0 Z M 8.199219 -15.890625 C 9.445312 -15.890625 10.746094 -14.816406 10.746094 -13.0625 C 10.746094 -11.226562 9.445312 -10.207031 8.199219 -10.207031 L 5.9375 -10.207031 L 5.9375 -15.890625 Z M 8.199219 -15.890625 "/></g></g></g><g fill="#ffffff" fill-opacity="1"><g transform="translate(96.187312, 56.011275)"><g><path d="M 2.234375 0 L 3.726562 0 L 5.238281 -4.304688 L 6.75 0 L 8.230469 0 L 10.378906 -6.652344 L 8.78125 -6.652344 L 8.144531 -4.628906 L 7.433594 -2.414062 L 6.664062 -4.628906 L 5.949219 -6.652344 L 4.515625 -6.652344 L 3.800781 -4.628906 L 3.042969 -2.441406 L 2.339844 -4.628906 L 1.703125 -6.652344 L 0.09375 -6.652344 Z M 2.234375 0 "/></g></g></g><g fill="#ffffff" fill-opacity="1"><g transform="translate(107.127756, 56.011275)"><g><path d="M 0.796875 0 L 5.273438 0 L 5.273438 -1.28125 L 2.300781 -1.28125 L 2.300781 -2.738281 L 4.914062 -2.738281 L 4.914062 -4 L 2.300781 -4 L 2.300781 -5.378906 L 5.171875 -5.378906 L 5.171875 -6.652344 L 0.796875 -6.652344 Z M 0.796875 0 "/></g></g></g><g fill="#ffffff" fill-opacity="1"><g transform="translate(113.357963, 56.011275)"><g/></g></g><g fill="#ffffff" fill-opacity="1"><g transform="translate(116.064982, 56.011275)"><g><path d="M 3.117188 0.132812 C 4.695312 0.132812 5.664062 -0.617188 5.664062 -1.871094 C 5.664062 -2.925781 4.972656 -3.554688 3.316406 -3.945312 C 2.300781 -4.183594 1.949219 -4.4375 1.949219 -4.847656 C 1.949219 -5.285156 2.339844 -5.550781 2.976562 -5.550781 C 3.667969 -5.550781 4.085938 -5.191406 4.085938 -4.589844 L 5.542969 -4.589844 C 5.542969 -5.929688 4.535156 -6.785156 2.957031 -6.785156 C 1.425781 -6.785156 0.476562 -6.035156 0.476562 -4.820312 C 0.476562 -3.734375 1.207031 -3.089844 2.765625 -2.757812 C 3.707031 -2.558594 4.132812 -2.28125 4.132812 -1.816406 C 4.132812 -1.367188 3.734375 -1.113281 3.109375 -1.113281 C 2.375 -1.113281 1.902344 -1.484375 1.902344 -2.121094 L 0.417969 -2.121094 C 0.417969 -0.742188 1.445312 0.132812 3.117188 0.132812 Z M 3.117188 0.132812 "/></g></g></g><g fill="#ffffff" fill-opacity="1"><g transform="translate(122.627562, 56.011275)"><g><path d="M 2.394531 0 L 3.90625 0 L 3.90625 -5.238281 L 6.015625 -5.238281 L 6.015625 -6.652344 L 0.285156 -6.652344 L 0.285156 -5.238281 L 2.394531 -5.238281 Z M 2.394531 0 "/></g></g></g><g fill="#ffffff" fill-opacity="1"><g transform="translate(129.399064, 56.011275)"><g><path d="M 0.796875 0 L 2.308594 0 L 2.308594 -2.070312 L 3.308594 -2.070312 L 4.496094 0 L 6.246094 0 L 4.867188 -2.308594 C 5.664062 -2.660156 6.128906 -3.382812 6.128906 -4.363281 C 6.128906 -5.777344 5.160156 -6.652344 3.640625 -6.652344 L 0.796875 -6.652344 Z M 2.289062 -3.347656 L 2.289062 -5.359375 L 3.441406 -5.359375 C 4.183594 -5.359375 4.601562 -5 4.601562 -4.351562 C 4.601562 -3.707031 4.183594 -3.347656 3.441406 -3.347656 Z M 2.289062 -3.347656 "/></g></g></g><g fill="#ffffff" fill-opacity="1"><g transform="translate(136.559921, 56.011275)"><g><path d="M 0.796875 0 L 2.308594 0 L 2.308594 -6.652344 L 0.796875 -6.652344 Z M 0.796875 0 "/></g></g></g><g fill="#ffffff" fill-opacity="1"><g transform="translate(140.140619, 56.011275)"><g><path d="M 2.640625 0 L 4.125 0 L 6.683594 -6.652344 L 5.066406 -6.652344 L 3.394531 -2.175781 L 2.59375 -4.285156 L 1.710938 -6.652344 L 0.0859375 -6.652344 Z M 2.640625 0 "/></g></g></g><g fill="#ffffff" fill-opacity="1"><g transform="translate(147.377451, 56.011275)"><g><path d="M 0.796875 0 L 5.273438 0 L 5.273438 -1.28125 L 2.300781 -1.28125 L 2.300781 -2.738281 L 4.914062 -2.738281 L 4.914062 -4 L 2.300781 -4 L 2.300781 -5.378906 L 5.171875 -5.378906 L 5.171875 -6.652344 L 0.796875 -6.652344 Z M 0.796875 0 "/></g></g></g><g fill="#ffffff" fill-opacity="1"><g transform="translate(153.607658, 56.011275)"><g/></g></g><g fill="#ffffff" fill-opacity="1"><g transform="translate(156.314677, 56.011275)"><g><path d="M 2.394531 0 L 3.90625 0 L 3.90625 -5.238281 L 6.015625 -5.238281 L 6.015625 -6.652344 L 0.285156 -6.652344 L 0.285156 -5.238281 L 2.394531 -5.238281 Z M 2.394531 0 "/></g></g></g><g fill="#ffffff" fill-opacity="1"><g transform="translate(163.086179, 56.011275)"><g><path d="M 3.953125 0.132812 C 6.035156 0.132812 7.507812 -1.292969 7.507812 -3.328125 C 7.507812 -5.359375 6.035156 -6.785156 3.953125 -6.785156 C 1.871094 -6.785156 0.410156 -5.359375 0.410156 -3.328125 C 0.410156 -1.292969 1.871094 0.132812 3.953125 0.132812 Z M 1.949219 -3.328125 C 1.949219 -4.523438 2.777344 -5.351562 3.953125 -5.351562 C 5.140625 -5.351562 5.960938 -4.523438 5.960938 -3.328125 C 5.960938 -2.128906 5.140625 -1.300781 3.953125 -1.300781 C 2.777344 -1.300781 1.949219 -2.128906 1.949219 -3.328125 Z M 1.949219 -3.328125 "/></g></g></g><g fill="#ffffff" fill-opacity="1"><g transform="translate(171.472078, 56.011275)"><g/></g></g><g fill="#ffffff" fill-opacity="1"><g transform="translate(174.179097, 56.011275)"><g><path d="M 0.796875 0 L 2.300781 0 L 2.300781 -4.011719 L 3.917969 -1.644531 L 4.960938 -1.644531 L 6.578125 -4 L 6.578125 0 L 8.078125 0 L 8.078125 -6.652344 L 6.804688 -6.652344 L 4.449219 -3.203125 L 2.082031 -6.652344 L 0.796875 -6.652344 Z M 0.796875 0 "/></g></g></g><g fill="#ffffff" fill-opacity="1"><g transform="translate(183.524145, 56.011275)"><g><path d="M 0.0859375 0 L 1.703125 0 L 2.148438 -1.148438 L 4.789062 -1.148438 L 5.238281 0 L 6.851562 0 L 4.210938 -6.652344 L 2.726562 -6.652344 Z M 2.539062 -2.339844 L 3.46875 -4.773438 L 4.410156 -2.339844 Z M 2.539062 -2.339844 "/></g></g></g><g fill="#ffffff" fill-opacity="1"><g transform="translate(190.9319, 56.011275)"><g><path d="M 0.796875 0 L 2.308594 0 L 2.308594 -2.691406 L 3.109375 -2.691406 C 3.230469 -2.691406 3.335938 -2.691406 3.449219 -2.699219 L 4.875 0 L 6.632812 0 L 4.839844 -3.261719 C 5.105469 -3.515625 5.304688 -3.847656 5.476562 -4.285156 L 6.398438 -6.652344 L 4.761719 -6.652344 L 4.132812 -4.921875 C 3.90625 -4.296875 3.632812 -4.097656 2.878906 -4.097656 L 2.308594 -4.097656 L 2.308594 -6.652344 L 0.796875 -6.652344 Z M 0.796875 0 "/></g></g></g><g fill="#ffffff" fill-opacity="1"><g transform="translate(198.31118, 56.011275)"><g><path d="M 0.796875 0 L 5.273438 0 L 5.273438 -1.28125 L 2.300781 -1.28125 L 2.300781 -2.738281 L 4.914062 -2.738281 L 4.914062 -4 L 2.300781 -4 L 2.300781 -5.378906 L 5.171875 -5.378906 L 5.171875 -6.652344 L 0.796875 -6.652344 Z M 0.796875 0 "/></g></g></g><g fill="#ffffff" fill-opacity="1"><g transform="translate(204.541393, 56.011275)"><g/></g></g><g fill="#ffffff" fill-opacity="1"><g transform="translate(207.248406, 56.011275)"><g><path d="M 0.0859375 0 L 1.703125 0 L 2.148438 -1.148438 L 4.789062 -1.148438 L 5.238281 0 L 6.851562 0 L 4.210938 -6.652344 L 2.726562 -6.652344 Z M 2.539062 -2.339844 L 3.46875 -4.773438 L 4.410156 -2.339844 Z M 2.539062 -2.339844 "/></g></g></g><path stroke-linecap="butt" transform="matrix(0.726128, 0, 0, 0.726128, 74.981742, 47.603713)" fill="none" stroke-linejoin="miter" d="M 31.700002 10.998241 L 33.754994 10.998241 L 35.836885 5.069965 L 37.918775 10.998241 L 39.963008 10.998241 L 42.921767 1.836848 L 40.721526 1.836848 L 39.844658 4.623461 L 38.860198 7.679052 L 37.800425 4.623461 L 36.821344 1.836848 L 34.841666 1.836848 L 33.857206 4.623461 L 32.813571 7.636016 L 31.84525 4.623461 L 30.968382 1.836848 L 28.757382 1.836848 Z M 44.793854 10.998241 L 50.953452 10.998241 L 50.953452 9.233745 L 46.859606 9.233745 L 46.859606 7.227169 L 50.458532 7.227169 L 50.458532 5.489571 L 46.859606 5.489571 L 46.859606 3.590585 L 50.813583 3.590585 L 50.813583 1.836848 L 44.793854 1.836848 Z M 60.292371 11.181147 C 62.465713 11.181147 63.799845 10.148271 63.799845 8.421432 C 63.799845 6.96895 62.847662 6.102841 60.572108 5.564884 C 59.168042 5.242111 58.683882 4.88706 58.683882 4.322206 C 58.683882 3.725074 59.221838 3.353885 60.098706 3.353885 C 61.050889 3.353885 61.626502 3.854184 61.626502 4.677257 L 63.633078 4.677257 C 63.633078 2.832067 62.245151 1.653943 60.071809 1.653943 C 57.963021 1.653943 56.655787 2.686819 56.655787 4.359863 C 56.655787 5.855381 57.661765 6.748388 59.80821 7.205651 C 61.104684 7.480008 61.696436 7.856578 61.696436 8.502125 C 61.696436 9.115395 61.147721 9.470446 60.281612 9.470446 C 59.270254 9.470446 58.619327 8.959388 58.619327 8.082519 L 56.575094 8.082519 C 56.575094 9.981504 57.989918 11.181147 60.292371 11.181147 Z M 68.334815 10.998241 L 70.416705 10.998241 L 70.416705 3.789629 L 73.327048 3.789629 L 73.327048 1.836848 L 65.429852 1.836848 L 65.429852 3.789629 L 68.334815 3.789629 Z M 75.462734 10.998241 L 77.544624 10.998241 L 77.544624 8.147074 L 78.916412 8.147074 L 80.551799 10.998241 L 82.961842 10.998241 L 81.062857 7.818921 C 82.165667 7.33476 82.805835 6.339541 82.805835 4.989271 C 82.805835 3.04187 81.471704 1.836848 79.379054 1.836848 L 75.462734 1.836848 Z M 77.517726 6.393337 L 77.517726 3.617483 L 79.104697 3.617483 C 80.121434 3.617483 80.697047 4.117782 80.697047 5.00541 C 80.697047 5.898417 80.121434 6.393337 79.104697 6.393337 Z M 85.32347 10.998241 L 87.40536 10.998241 L 87.40536 1.836848 L 85.32347 1.836848 Z M 92.795681 10.998241 L 94.839914 10.998241 L 98.358147 1.836848 L 96.131009 1.836848 L 93.828556 8.001826 L 92.731126 5.096863 L 91.509965 1.836848 L 89.272068 1.836848 Z M 100.219475 10.998241 L 106.384453 10.998241 L 106.384453 9.233745 L 102.290606 9.233745 L 102.290606 7.227169 L 105.889533 7.227169 L 105.889533 5.489571 L 102.290606 5.489571 L 102.290606 3.590585 L 106.244584 3.590585 L 106.244584 1.836848 L 100.219475 1.836848 Z M 114.728152 10.998241 L 116.810043 10.998241 L 116.810043 3.789629 L 119.715006 3.789629 L 119.715006 1.836848 L 111.823189 1.836848 L 111.823189 3.789629 L 114.728152 3.789629 Z M 126.202757 11.181147 C 129.070063 11.181147 131.098158 9.217607 131.098158 6.414855 C 131.098158 3.617483 129.070063 1.653943 126.202757 1.653943 C 123.33545 1.653943 121.318115 3.617483 121.318115 6.414855 C 121.318115 9.217607 123.33545 11.181147 126.202757 11.181147 Z M 123.443042 6.414855 C 123.443042 4.768709 124.578129 3.628242 126.202757 3.628242 C 127.838143 3.628242 128.962472 4.768709 128.962472 6.414855 C 128.962472 8.06638 127.838143 9.206848 126.202757 9.206848 C 124.578129 9.206848 123.443042 8.06638 123.443042 6.414855 Z M 137.134025 10.998241 L 139.199777 10.998241 L 139.199777 5.473432 L 141.426915 8.733446 L 142.863258 8.733446 L 145.090397 5.489571 L 145.090397 10.998241 L 147.161528 10.998241 L 147.161528 1.836848 L 145.407791 1.836848 L 142.158536 6.592381 L 138.898522 1.836848 L 137.134025 1.836848 Z M 149.022856 10.998241 L 151.244615 10.998241 L 151.863264 9.41665 L 155.499848 9.41665 L 156.113118 10.998241 L 158.340256 10.998241 L 154.703673 1.836848 L 152.65944 1.836848 Z M 152.401221 7.781264 L 153.681556 4.429797 L 154.97803 7.781264 Z M 160.201585 10.998241 L 162.283475 10.998241 L 162.283475 7.297103 L 163.380905 7.297103 C 163.558431 7.297103 163.698299 7.297103 163.854307 7.280965 L 165.817847 10.998241 L 168.238649 10.998241 L 165.769431 6.511687 C 166.135241 6.156636 166.409598 5.699373 166.64092 5.096863 L 167.915876 1.836848 L 165.661839 1.836848 L 164.80111 4.219994 C 164.483715 5.086103 164.107146 5.360461 163.068891 5.360461 L 162.283475 5.360461 L 162.283475 1.836848 L 160.201585 1.836848 Z M 170.363576 10.998241 L 176.528553 10.998241 L 176.528553 9.233745 L 172.434707 9.233745 L 172.434707 7.227169 L 176.033634 7.227169 L 176.033634 5.489571 L 172.434707 5.489571 L 172.434707 3.590585 L 176.388685 3.590585 L 176.388685 1.836848 L 170.363576 1.836848 Z M 181.692932 10.998241 L 183.914691 10.998241 L 184.533341 9.41665 L 188.169924 9.41665 L 188.788574 10.998241 L 191.010333 10.998241 L 187.373749 1.836848 L 185.334895 1.836848 Z M 185.071297 7.781264 L 186.351632 4.429797 L 187.648107 7.781264 Z M 185.071297 7.781264 " stroke="#198420" stroke-width="0.49098" stroke-opacity="1" stroke-miterlimit="4"/><g fill="#ffffff" fill-opacity="1"><g transform="translate(116.779848, 65.450939)"><g><path d="M 3.898438 0.132812 C 6.09375 0.132812 7.507812 -1.492188 7.355469 -3.773438 L 3.601562 -3.773438 L 3.601562 -2.605469 L 5.761719 -2.605469 C 5.570312 -1.796875 4.886719 -1.253906 3.917969 -1.253906 C 2.699219 -1.253906 1.921875 -2.128906 1.921875 -3.328125 C 1.921875 -4.542969 2.726562 -5.398438 3.898438 -5.398438 C 4.636719 -5.398438 5.257812 -5.058594 5.578125 -4.476562 L 7.203125 -4.476562 C 6.804688 -5.875 5.484375 -6.785156 3.867188 -6.785156 C 1.84375 -6.785156 0.410156 -5.351562 0.410156 -3.328125 C 0.410156 -1.292969 1.851562 0.132812 3.898438 0.132812 Z M 3.898438 0.132812 "/></g></g></g><g fill="#ffffff" fill-opacity="1"><g transform="translate(125.004314, 65.450939)"><g><path d="M 0.796875 0 L 2.308594 0 L 2.308594 -2.070312 L 3.308594 -2.070312 L 4.496094 0 L 6.246094 0 L 4.867188 -2.308594 C 5.664062 -2.660156 6.128906 -3.382812 6.128906 -4.363281 C 6.128906 -5.777344 5.160156 -6.652344 3.640625 -6.652344 L 0.796875 -6.652344 Z M 2.289062 -3.347656 L 2.289062 -5.359375 L 3.441406 -5.359375 C 4.183594 -5.359375 4.601562 -5 4.601562 -4.351562 C 4.601562 -3.707031 4.183594 -3.347656 3.441406 -3.347656 Z M 2.289062 -3.347656 "/></g></g></g><g fill="#ffffff" fill-opacity="1"><g transform="translate(132.165172, 65.450939)"><g><path d="M 0.796875 0 L 5.273438 0 L 5.273438 -1.28125 L 2.300781 -1.28125 L 2.300781 -2.738281 L 4.914062 -2.738281 L 4.914062 -4 L 2.300781 -4 L 2.300781 -5.378906 L 5.171875 -5.378906 L 5.171875 -6.652344 L 0.796875 -6.652344 Z M 0.796875 0 "/></g></g></g><g fill="#ffffff" fill-opacity="1"><g transform="translate(138.395379, 65.450939)"><g><path d="M 0.796875 0 L 5.273438 0 L 5.273438 -1.28125 L 2.300781 -1.28125 L 2.300781 -2.738281 L 4.914062 -2.738281 L 4.914062 -4 L 2.300781 -4 L 2.300781 -5.378906 L 5.171875 -5.378906 L 5.171875 -6.652344 L 0.796875 -6.652344 Z M 0.796875 0 "/></g></g></g><g fill="#ffffff" fill-opacity="1"><g transform="translate(144.625586, 65.450939)"><g><path d="M 0.796875 0 L 2.300781 0 L 2.300781 -4.078125 L 5.238281 0 L 6.519531 0 L 6.519531 -6.652344 L 5.019531 -6.652344 L 5.019531 -2.605469 L 2.082031 -6.652344 L 0.796875 -6.652344 Z M 0.796875 0 "/></g></g></g><g fill="#ffffff" fill-opacity="1"><g transform="translate(152.413207, 65.450939)"><g><path d="M 0.796875 0 L 5.273438 0 L 5.273438 -1.28125 L 2.300781 -1.28125 L 2.300781 -2.738281 L 4.914062 -2.738281 L 4.914062 -4 L 2.300781 -4 L 2.300781 -5.378906 L 5.171875 -5.378906 L 5.171875 -6.652344 L 0.796875 -6.652344 Z M 0.796875 0 "/></g></g></g><g fill="#ffffff" fill-opacity="1"><g transform="translate(158.643415, 65.450939)"><g><path d="M 0.796875 0 L 2.308594 0 L 2.308594 -2.070312 L 3.308594 -2.070312 L 4.496094 0 L 6.246094 0 L 4.867188 -2.308594 C 5.664062 -2.660156 6.128906 -3.382812 6.128906 -4.363281 C 6.128906 -5.777344 5.160156 -6.652344 3.640625 -6.652344 L 0.796875 -6.652344 Z M 2.289062 -3.347656 L 2.289062 -5.359375 L 3.441406 -5.359375 C 4.183594 -5.359375 4.601562 -5 4.601562 -4.351562 C 4.601562 -3.707031 4.183594 -3.347656 3.441406 -3.347656 Z M 2.289062 -3.347656 "/></g></g></g><g fill="#ffffff" fill-opacity="1"><g transform="translate(165.804272, 65.450939)"><g/></g></g><g fill="#ffffff" fill-opacity="1"><g transform="translate(168.511292, 65.450939)"><g><path d="M 3.847656 0.132812 C 5.597656 0.132812 6.957031 -0.929688 7.289062 -2.546875 L 5.730469 -2.546875 C 5.457031 -1.785156 4.753906 -1.300781 3.878906 -1.300781 C 2.746094 -1.300781 1.949219 -2.128906 1.949219 -3.328125 C 1.949219 -4.523438 2.757812 -5.351562 3.886719 -5.351562 C 4.734375 -5.351562 5.425781 -4.894531 5.683594 -4.164062 L 7.242188 -4.164062 C 6.863281 -5.761719 5.53125 -6.785156 3.839844 -6.785156 C 1.824219 -6.785156 0.410156 -5.359375 0.410156 -3.328125 C 0.410156 -1.292969 1.824219 0.132812 3.847656 0.132812 Z M 3.847656 0.132812 "/></g></g></g><g fill="#ffffff" fill-opacity="1"><g transform="translate(176.650288, 65.450939)"><g><path d="M 0.796875 0 L 2.308594 0 L 2.308594 -6.652344 L 0.796875 -6.652344 Z M 0.796875 0 "/></g></g></g><g fill="#ffffff" fill-opacity="1"><g transform="translate(180.230986, 65.450939)"><g><path d="M 2.394531 0 L 3.90625 0 L 3.90625 -5.238281 L 6.015625 -5.238281 L 6.015625 -6.652344 L 0.285156 -6.652344 L 0.285156 -5.238281 L 2.394531 -5.238281 Z M 2.394531 0 "/></g></g></g><g fill="#ffffff" fill-opacity="1"><g transform="translate(187.002487, 65.450939)"><g><path d="M 2.539062 0 L 4.050781 0 L 4.050781 -2.347656 L 6.492188 -6.652344 L 4.773438 -6.652344 L 3.953125 -5.113281 L 3.296875 -3.90625 L 2.632812 -5.113281 L 1.804688 -6.652344 L 0.0859375 -6.652344 L 2.539062 -2.328125 Z M 2.539062 0 "/></g></g></g><path stroke-linecap="butt" transform="matrix(0.726128, 0, 0, 0.726128, 74.981742, 47.603713)" fill="none" stroke-linejoin="miter" d="M 62.352743 24.183546 C 65.376056 24.183546 67.323457 21.945649 67.113654 18.803985 L 61.943896 18.803985 L 61.943896 20.412474 L 64.918793 20.412474 C 64.655195 21.526043 63.713772 22.268423 62.37964 22.268423 C 60.701217 22.268423 59.625305 21.06878 59.625305 19.417255 C 59.625305 17.744211 60.744254 16.560708 62.352743 16.560708 C 63.374859 16.560708 64.22483 17.034109 64.665954 17.835664 L 66.909231 17.835664 C 66.355136 15.909781 64.536845 14.650964 62.309706 14.650964 C 59.523093 14.650964 57.548794 16.630642 57.548794 19.417255 C 57.548794 22.220006 59.539232 24.183546 62.352743 24.183546 Z M 69.410727 24.000641 L 71.492617 24.000641 L 71.492617 21.144094 L 72.864406 21.144094 L 74.499792 24.000641 L 76.909836 24.000641 L 75.010851 20.821321 C 76.113661 20.33178 76.753828 19.341941 76.753828 17.991671 C 76.753828 16.04427 75.419697 14.839248 73.327048 14.839248 L 69.410727 14.839248 Z M 71.46572 19.390357 L 71.46572 16.619883 L 73.05269 16.619883 C 74.069427 16.619883 74.64504 17.114803 74.64504 18.00243 C 74.64504 18.895438 74.069427 19.390357 73.05269 19.390357 Z M 79.271463 24.000641 L 85.436441 24.000641 L 85.436441 22.230766 L 81.337215 22.230766 L 81.337215 20.229569 L 84.941521 20.229569 L 84.941521 18.49197 L 81.337215 18.49197 L 81.337215 16.592985 L 85.291192 16.592985 L 85.291192 14.839248 L 79.271463 14.839248 Z M 87.851864 24.000641 L 94.016841 24.000641 L 94.016841 22.230766 L 89.917615 22.230766 L 89.917615 20.229569 L 93.521921 20.229569 L 93.521921 18.49197 L 89.917615 18.49197 L 89.917615 16.592985 L 93.871593 16.592985 L 93.871593 14.839248 L 87.851864 14.839248 Z M 96.432264 24.000641 L 98.498016 24.000641 L 98.498016 18.384379 L 102.543446 24.000641 L 104.313321 24.000641 L 104.313321 14.839248 L 102.24757 14.839248 L 102.24757 20.412474 L 98.19676 14.839248 L 96.432264 14.839248 Z M 107.159109 24.000641 L 113.324087 24.000641 L 113.324087 22.230766 L 109.224861 22.230766 L 109.224861 20.229569 L 112.823788 20.229569 L 112.823788 18.49197 L 109.224861 18.49197 L 109.224861 16.592985 L 113.178839 16.592985 L 113.178839 14.839248 L 107.159109 14.839248 Z M 115.73951 24.000641 L 117.81602 24.000641 L 117.81602 21.144094 L 119.193188 21.144094 L 120.828575 24.000641 L 123.238618 24.000641 L 121.339633 20.821321 C 122.437064 20.33178 123.082611 19.341941 123.082611 17.991671 C 123.082611 16.04427 121.7431 14.839248 119.650451 14.839248 L 115.73951 14.839248 Z M 117.789123 19.390357 L 117.789123 16.619883 L 119.376093 16.619883 C 120.39821 16.619883 120.973823 17.114803 120.973823 18.00243 C 120.973823 18.895438 120.39821 19.390357 119.376093 19.390357 Z M 133.529719 24.183546 C 135.939763 24.183546 137.806471 22.720306 138.269113 20.493167 L 136.122668 20.493167 C 135.740719 21.536802 134.772398 22.209247 133.567376 22.209247 C 132.012683 22.209247 130.909873 21.06878 130.909873 19.417255 C 130.909873 17.76573 132.023442 16.630642 133.578135 16.630642 C 134.7455 16.630642 135.703062 17.260051 136.052734 18.266029 L 138.199179 18.266029 C 137.677361 16.065788 135.84831 14.650964 133.51896 14.650964 C 130.737727 14.650964 128.790326 16.619883 128.790326 19.417255 C 128.790326 22.220006 130.737727 24.183546 133.529719 24.183546 Z M 140.533908 24.000641 L 142.615798 24.000641 L 142.615798 14.839248 L 140.533908 14.839248 Z M 147.667207 24.000641 L 149.743717 24.000641 L 149.743717 16.786649 L 152.65406 16.786649 L 152.65406 14.839248 L 144.762243 14.839248 L 144.762243 16.786649 L 147.667207 16.786649 Z M 157.18903 24.000641 L 159.27092 24.000641 L 159.27092 20.767525 L 162.633146 14.839248 L 160.26076 14.839248 L 159.136431 16.958795 L 158.232665 18.62108 L 157.31814 16.958795 L 156.177673 14.839248 L 153.810666 14.839248 L 157.18903 20.789043 Z M 157.18903 24.000641 " stroke="#198420" stroke-width="0.49098" stroke-opacity="1" stroke-miterlimit="4"/></svg>